<svg xmlns="http://www.w3.org/2000/svg" width="15" height="27" viewBox="0 0 15 27"><g><g><path fill="#fff" d="M14.336.277L10.763.272C6.748.272 4.154 2.795 4.154 6.7v2.964H.561c-.31 0-.562.238-.562.533v4.294c0 .294.252.533.562.533h3.593v10.835c0 .294.251.532.562.532h4.687c.31 0 .562-.238.562-.532V15.024h4.201c.31 0 .562-.239.562-.533l.002-4.294a.52.52 0 0 0-.165-.377.578.578 0 0 0-.397-.156H9.966V7.151c0-1.207.303-1.82 1.962-1.82l2.408-.001c.31 0 .561-.239.561-.533V.81c0-.294-.25-.532-.56-.533z"/></g></g></svg>