<svg xmlns="http://www.w3.org/2000/svg" width="28" height="28" viewBox="0 0 28 28"><g><g><path fill="#fff" d="M28 7.736v12.54c0 4.258-3.403 7.722-7.585 7.722H8.1c-4.181 0-7.583-3.464-7.583-7.722V7.736C.517 3.478 3.919.014 8.1.014h12.315c4.182 0 7.584 3.464 7.584 7.722zm-2.44 12.54V7.736c0-2.888-2.308-5.24-5.145-5.24H8.1c-2.837 0-5.145 2.352-5.145 5.24v12.54c0 2.889 2.308 5.24 5.145 5.24h12.315c2.837 0 5.146-2.351 5.146-5.24zm-4.22-6.27c0 3.976-3.177 7.212-7.082 7.212s-7.082-3.236-7.082-7.211c0-3.977 3.177-7.211 7.082-7.211s7.081 3.234 7.081 7.21zm-2.44 0c0-2.607-2.082-4.728-4.642-4.728-2.56 0-4.644 2.121-4.644 4.729 0 2.606 2.084 4.727 4.644 4.727s4.643-2.121 4.643-4.727zm4.001-8.783a1.844 1.844 0 0 1 0 2.575 1.788 1.788 0 0 1-1.265.533c-.47 0-.931-.195-1.263-.533a1.845 1.845 0 0 1 0-2.575 1.78 1.78 0 0 1 1.263-.533c.472 0 .933.194 1.265.533z"/></g></g></svg>